<?xml version="1.0" encoding="utf-8"?>
<!-- Generator: Adobe Illustrator 15.0.0, SVG Export Plug-In . SVG Version: 6.00 Build 0)  -->
<!DOCTYPE svg
	PUBLIC "-//W3C//DTD SVG 1.1//EN" "http://www.w3.org/Graphics/SVG/1.1/DTD/svg11.dtd">
<svg version="1.1" id="Layer_1" xmlns="http://www.w3.org/2000/svg"
	xmlns:xlink="http://www.w3.org/1999/xlink" x="0px" y="0px" width="1110"
	height="1110px" viewBox="-50 0 1110 1110"
	enable-background="new 0 0 1110 1110" xml:space="preserve">
	<g>
		<defs>
			<rect id="SVGID_1_" width="1110" height="1110" />
		</defs>
		<clipPath id="SVGID_2_">
			<use xlink:href="#SVGID_1_" overflow="visible" />
		</clipPath>
		<path clip-path="url(#SVGID_2_)" fill="#056B8F" d="M394.979,753.852l-50.277,89.923
		C263.497,798.372,204.86,724.125,179.579,634.72c-44.527-157.343,26.883-316.79,156.719-393.84
		c12.91,21.651,2.491,4.164,52.843,88.691c-35.849,21.275-66.702,51.961-88.449,90.857
		C234.76,538.352,277.056,687.92,394.979,753.852" />
		<path clip-path="url(#SVGID_2_)" fill="#00AED7"
			d="M862.714,535.203c-25.205,0.341-4.851,0.06-103.229,1.43
		c-1.296-84.605-46.365-166.32-125.369-210.492c-79.006-44.172-172.221-39.773-244.976,3.429
		c-50.352-84.527-39.935-67.044-52.842-88.691c101.37-60.386,233.579-68.687,348.094-4.661
		c81.206,45.403,139.863,119.662,165.123,209.054C857.91,474.96,862.296,505.151,862.714,535.203" />
		<path clip-path="url(#SVGID_2_)" fill="#F27039" d="M609.271,874.964c-89.383,25.295-183.363,14.213-264.569-31.188l50.277-89.924
		c117.923,65.932,267.491,23.636,333.424-94.287c21.747-38.897,31.731-81.25,31.083-122.932c98.378-1.37,78.028-1.089,103.229-1.43
		C865.064,685.892,766.875,830.43,609.271,874.964" />
		<path clip-path="url(#SVGID_2_)" fill="#00AED7" d="M960.851,781.909c76.918-145.024,82.009-322.69-0.834-477.203
		c-2.435-4.531-0.728-10.177,3.808-12.611c4.451-2.385,10.1-0.817,12.609,3.812c65.824,122.762,80.271,263.838,40.678,397.237
		c-10.034,33.806-23.424,66.607-39.802,97.495c-2.413,4.543-8.045,6.275-12.594,3.864
		C960.219,792.117,958.42,786.498,960.851,781.909" />
		<path clip-path="url(#SVGID_2_)" fill="#F27039"
			d="M67.36,801.227c4.42-2.634,10.14-1.187,12.771,3.234
		c95.746,160.751,268.257,248.287,441.602,245.738c5.144-0.073,9.368,4.04,9.452,9.178c0.074,5.145-4.033,9.379-9.177,9.453
		c-181.749,2.664-359.587-89.806-457.881-254.836C61.537,809.739,62.845,803.916,67.36,801.227" />
		<path clip-path="url(#SVGID_2_)" fill="#056B8F"
			d="M68.822,283.1c-4.537-2.84-5.699-8.618-3.131-12.807
		c94.59-155.369,265.526-249.684,439.952-251.426c2.733-0.061,5.242,1.12,6.98,2.944c0.538,2.923,0.782,5.856,0.733,8.798
		c0.008,1.117-0.073,2.208-0.243,3.273c-1.664,2.173-4.264,3.582-7.232,3.622c-76.476,0.649-158.102,20.612-233.204,61.336
		c-78.923,42.797-144.98,105.457-191.048,181.129C78.922,284.352,73.175,285.749,68.822,283.1" />
		<path clip-path="url(#SVGID_2_)" fill="#056B8F" d="M290.981,856.421C217.805,804.95,166.2,732.025,141.727,645.482
		c-28.122-99.447-15.808-204.03,34.732-294.422c26.825-47.979,62.383-88.742,105.762-121.205
		c12.67-9.489,16.578-26.578,9.534-40.767c-0.346-0.807-0.766-1.594-1.258-2.36c-10.719-17.589-33.043-20.792-47.905-9.721
		c-51.002,38.083-92.756,85.756-124.026,141.685C5.056,521.714,64.421,777.543,252.556,910.436
		c17.082,11.693,38.618,5.363,47.89-11.22C308.708,884.439,304.641,866.022,290.981,856.421 M262.001,897.057
		C80.392,768.784,23.703,521.955,132.876,326.692c30.146-53.917,70.354-99.815,119.541-136.519
		c4.969-3.729,11.756-4.23,17.399-1.259c0.167,0.032,0.308,0.111,0.447,0.189c4.277,2.391,7.566,6.867,8.362,12.163
		c0.905,5.846-1.339,11.835-6.183,15.449c-45.266,33.863-82.343,76.354-110.293,126.344
		c-52.683,94.227-65.535,203.175-36.17,306.876c25.503,90.188,79.292,166.236,155.605,219.891c6.736,4.748,8.709,13.954,4.552,21.39
		C281.483,899.537,270.707,902.924,262.001,897.057" />
		<path clip-path="url(#SVGID_2_)" fill="#00AED7" d="M727.87,158.456c121.296,67.817,203.749,191,220.563,329.515
		c0.569,4.675-0.79,9.045-3.923,12.635c-5.226,5.983-13.912,7.469-20.792,3.622c-4.544-2.54-7.62-7.066-8.229-12.105
		C885.591,244.775,642.489,84.27,404.634,151.536c-20.323,5.745-40.264,13.087-59.276,21.823
		c-7.362,3.386-16.453,0.618-20.825-6.712c-4.871-8.185-2.029-19.332,7.11-23.53C458.453,84.904,606.574,90.638,727.87,158.456
		 M735.871,144.145c-125.845-70.361-279.514-76.319-411.068-15.928c-8.502,3.905-14.727,11.005-17.524,19.995
		c-4.656,14.968,1.81,31.156,15.459,38.787c9.096,5.086,20.114,5.559,29.47,1.257C461.562,138,591.112,139.176,703.513,202.02
		c112.183,62.723,181.224,172.312,195.698,292.07c1.968,16.263,16.12,28.88,33.135,28.654c19.121-0.27,34.769-16.955,32.364-36.75
		C947.268,342.298,861.718,214.507,735.871,144.145" />
		<path clip-path="url(#SVGID_2_)" fill="#F27039"
			d="M941.416,564.37c5.707,3.19,9.023,9.368,8.451,15.731
		c-5.528,61.116-23.611,119.434-53.747,173.334c-109.369,195.613-349.466,276.103-553.511,188.666
		c-9.123-3.903-12.56-14.818-7.795-23.341c4.303-7.695,13.03-10.869,20.75-7.546c85.684,36.896,178.64,42.912,268.813,17.397
		c103.704-29.313,189.822-97.334,242.49-191.533c27.947-49.985,44.727-103.852,49.872-160.101
		c0.756-8.266,7.731-14.588,16.238-14.708C935.964,562.227,938.882,562.953,941.416,564.37 M949.418,550.059
		c-5.039-2.817-10.783-4.269-16.682-4.182c-16.905,0.236-30.802,12.961-32.324,29.607c-4.935,53.943-21.035,105.622-47.856,153.594
		c-50.532,90.379-133.151,155.635-232.639,183.756c-86.511,24.479-175.681,18.712-257.869-16.679
		c-15.338-6.603-33.14-0.429-41.545,14.604c-9.489,16.973-2.444,38.667,15.654,46.415c211.693,90.712,460.778,7.254,574.273-195.738
		C941.7,705.508,960.46,645,966.196,581.579C967.349,568.775,960.767,556.404,949.418,550.059" />
	</g>
</svg>
